<?xml version="1.0" encoding="utf-8"?>
<!-- Generator: Adobe Illustrator 24.1.0, SVG Export Plug-In . SVG Version: 6.00 Build 0)  -->
<svg version="1.1" id="Capa_1" xmlns="http://www.w3.org/2000/svg" xmlns:xlink="http://www.w3.org/1999/xlink" x="0px" y="0px"
	 viewBox="0 0 322 322" style="enable-background:new 0 0 322 322;" xml:space="preserve">
<style type="text/css">
	.st0{fill:#FFFFFF;}
	.st1{fill:#FAF9F6;}
	.st2{fill:#F3C228;}
	.st3{fill:#282620;}
</style>
<g>
	<circle class="st0" cx="161" cy="161" r="161"/>
	<g>
		<path class="st1" d="M37.2,236.5c-8.5-0.4-15.3-5.6-22.9-8.4c-5.5-2-1.4-5.5-0.4-7.8C32.5,176.6,51.3,133,70.2,89.4
			c2.8-6.5,4.1-13.9,9.7-19c4.5,3.5,9.8,5.3,15.1,7.1c1.8,8.8,3.6,17.6,5.4,26.4c1.3,8.1,1.8,16.5,4,24.3c1.9,6.9-0.3,14.9,5.5,20.6
			c-0.8,8.6,1.1,16.9,4.1,24.9c-0.7,11.9,3.4,23,5.7,34.3c2.2,12.2,4.5,24.4,6.6,36.7c3.2,18.4,3.1,18.4,21.5,15.9
			c8.4,2.1,15.1,8.6,24.2,8.7c-20.2,7.2-40.3,12.8-60.7,0.2c-3.5-2.1-4.1-4.8-4.7-8c-1.3-6.5-3.3-12.9-3.4-19.4
			c-0.2-13.9-6.1-22.7-19.9-25.9c-8.7-3.5-17.4-7-26.1-10.5c-3.7-2.8-6.8-3.9-8.7,2.1c-1.4,4.4-3.5,8.5-5.3,12.7
			C41.4,226,35.8,230,37.2,236.5z M92.2,182.3c-2-10.9-3.9-22.3-6.3-33.6c-1-4.7-0.4-12.9-4.4-13.2c-5.5-0.5-5.3,7.7-7.9,12
			c-0.7,1.1-1.2,2.4-1.8,3.6c-11.2,24.4-11.2,24.4,13.1,34.6c0.6,0.3,1.1,0.7,1.7,0.9C90.4,188,92.5,187,92.2,182.3z"/>
		<path class="st2" d="M171.8,269.3c-9.1-0.1-15.8-6.6-24.2-8.7c-2.3-13.6-4.7-27.1-6.9-40.7c-0.5-2.9-2-4.7-4.7-5.7
			c-5.5-2-11-4.1-16.4-6.2c-2.3-11.4-6.4-22.5-5.7-34.3c6.5,0.4,11.4,6.2,19.2,5.7c-3.5-18.4-6.8-36.1-10.5-55.6
			c-6,9.4-7.3,18.3-12.8,25.1c-5.9-5.8-3.7-13.8-5.5-20.6c-2.2-7.9-2.7-16.2-4-24.3c5.6-9,8.9-19,13.3-30
			c-7.2,1.4-12.9,2.5-18.6,3.6c-5.3-1.8-10.6-3.7-15.1-7.1c11.7-2.3,23.3-4.8,35.1-6.7c10.5-1.7,20.3,5.3,22.2,15.4
			c11.5,61.4,23,122.9,34.5,184.3C171.9,265.3,171.7,267.3,171.8,269.3z"/>
		<path class="st2" d="M57,205.7c8.7,3.5,17.4,7,26.1,10.5c-4.7,17.6-20.4,15.5-33.2,18.5c-4.2,1-8.5,1.2-12.7,1.8
			c-1.3-6.5,4.2-10.5,5.8-16C53.7,221.3,54.3,212.6,57,205.7z"/>
		<path class="st3" d="M119.6,208c5.5,2.1,10.9,4.2,16.4,6.2c2.7,1,4.2,2.7,4.7,5.7c2.2,13.6,4.6,27.1,6.9,40.7
			c-18.4,2.5-18.3,2.5-21.5-15.9C124.1,232.4,121.8,220.2,119.6,208z"/>
		<path class="st2" d="M92.2,182.3c0.3,4.8-1.8,5.7-5.5,4.3c-0.6-0.2-1.1-0.7-1.7-0.9c-24.3-10.2-24.3-10.2-13.1-34.6
			c0.6-1.2,1.1-2.4,1.8-3.6c2.5-4.3,2.4-12.5,7.9-12c3.9,0.3,3.3,8.5,4.4,13.2C88.3,160,90.2,171.4,92.2,182.3z"/>
		<path class="st3" d="M109.8,148.8c5.5-6.8,6.8-15.7,12.8-25.1c3.7,19.5,7.1,37.3,10.5,55.6c-7.8,0.5-12.7-5.3-19.2-5.7
			C110.9,165.7,109.1,157.4,109.8,148.8z"/>
		<path class="st3" d="M94.9,77.5c5.7-1.1,11.4-2.2,18.6-3.6c-4.4,11-7.7,21-13.3,30C98.5,95,96.7,86.2,94.9,77.5z"/>
	</g>
	<path class="st3" d="M56.8,205.7c-2.7,6.8-3.3,15.6-14,14.8c1.8-4.2,3.9-8.3,5.3-12.7C50,201.8,53.1,203,56.8,205.7z"/>
	<g>
		<path class="st1" d="M242.2,253.1c-11.8,5.6-23.7,10.9-35.3,16.9c-11,5.7-21.7,0.9-32.5-0.7c-4.4-0.6-3.6-4.9-4.1-7.8
			c-10.9-60-21.6-120-32.6-180c-1.1-5.8-0.6-9.5,6-9.7c4.2,6.7,11.2,4.6,17.1,5.8c18.3,4,37.9,2.6,54.4,14.1
			c0.6,0.1,1.4,0.2,2.2,0.4c0.8,0.2,1.4,0.4,2,0.7c0.7,0.8,1.3,1.6,2,2.5c4.6,5.6,9.7,12.7,14.4,21.3c5.5,9.9,9,19.2,11.4,26.9
			c0.3,10.7,0.7,21.4,1,32c-3.8,7.3-5.7,16-13.9,20.1c-8.6,2.6-17.4,2.2-26.3,2.2c-4.7-0.8-9.4-1.4-14-2.5c-7-1.7-10.2-1.1-7.8,7.9
			c2.9,10.9,4.2,22.3,6.4,33.4c4,20.4,4,20.3,22.7,13.1C224.3,248.9,233.2,251.1,242.2,253.1z M194.4,117.4
			c-7.1-5.5-15.5-4-24.4-5.4c2.5,14.9,5,28.9,7.2,42.9c0.6,3.8,2.2,5.7,6.1,6c6.3,0.5,12.5,1.5,18.8,2.2c6.2,3.6,12,2.4,15.5-3.4
			c5.7-9.6,3.3-19.8-1.7-28.8C211.3,122.6,205.8,114.6,194.4,117.4z"/>
		<path class="st2" d="M248,175.5c-0.3-10.7-0.7-21.4-1-32c16.5-0.3,21.6-7.3,17.7-24c-4.5-19.3-21.1-29-45.7-26.7l0.2,0.1
			c-0.5-4-2.7-1.1-4.2-1.1c-16.5-11.6-36.1-10.1-54.4-14.1c-5.8-1.3-12.9,0.8-17.1-5.8c18.6-11.2,36.9-23.2,60.6-16.2
			c9.1,2.7,18.9,3.2,28.3,4.8c40.5,6.9,70.7,56.3,59.1,96.7c-4.1,14.3-12.3,20.6-27.1,20.3C259,177.3,253.5,176.2,248,175.5z"/>
		<path class="st2" d="M207.8,197.8c8.8,0,17.7,0.4,26.3-2.2c1.5,19.4,9.6,37.8,8.1,57.6c-8.9-2.1-17.8-4.3-27.1-3.6
			c1.8-2.4,1.7-4.9,1.1-7.9C213.2,227.1,210.6,212.4,207.8,197.8z"/>
		<path class="st3" d="M207.8,197.8c2.8,14.7,5.4,29.3,8.4,44c0.6,3,0.7,5.5-1.1,7.9c-18.6,7.3-18.7,7.3-22.7-13.1
			c-2.2-11.1-3.5-22.5-6.4-33.4c-2.4-8.9,0.8-9.6,7.8-7.9C198.4,196.4,203.1,196.9,207.8,197.8z"/>
		<path class="st3" d="M219,92.7c24.6-2.3,41.2,7.4,45.7,26.7c3.9,16.7-1.2,23.7-17.7,24C241,124.6,232,107.6,219,92.7z"/>
		<path class="st3" d="M202,163c-6.3-0.8-12.5-1.7-18.8-2.2c-3.9-0.3-5.5-2.1-6.1-6c-2.2-14-4.7-27.9-7.2-42.9
			c8.9,1.4,17.3,0,24.4,5.4C196.9,132.6,199.5,147.8,202,163z"/>
		<path class="st2" d="M202,163c-2.5-15.2-5.1-30.4-7.6-45.6c11.4-2.8,16.9,5.2,21.4,13.4c5,9.1,7.4,19.2,1.7,28.8
			C214,165.5,208.2,166.6,202,163z"/>
	</g>
	<path class="st2" d="M215.1,91.8c0.5-1.3,2-1.8,3-1.3c0.7,0.4,1.2,1.3,1,2.3c-0.4-0.1-0.9-0.2-1.3-0.3
		C216.9,92.3,216,92,215.1,91.8z"/>
</g>
</svg>
